PathFileType	4	(X/Y/Z)	17_2_23_p1_0-705.trc
DataRate	CameraRate	NumFrames	NumMarkers	Units	OrigDataRate	OrigDataStartFrame	OrigNumFrames
59.0	59.0	5	27	m	59.0	441	706
Frame#	Time	RHip			RKnee			RAnkle			RBigToe			RSmallToe			RHeel			LHip			LKnee			LAnkle			LBigToe			LSmallToe			LHeel			Neck			Head			Nose			RShoulder			RElbow			RWrist			RThumb			RIndex			RPinky			LShoulder			LElbow			LWrist			LThumb			LIndex			LPinky			
		X1	Y1	Z1	X2	Y2	Z2	X3	Y3	Z3	X4	Y4	Z4	X5	Y5	Z5	X6	Y6	Z6	X7	Y7	Z7	X8	Y8	Z8	X9	Y9	Z9	X10	Y10	Z10	X11	Y11	Z11	X12	Y12	Z12	X13	Y13	Z13	X14	Y14	Z14	X15	Y15	Z15	X16	Y16	Z16	X17	Y17	Z17	X18	Y18	Z18	X19	Y19	Z19	X20	Y20	Z20	X21	Y21	Z21	X22	Y22	Z22	X23	Y23	Z23	X24	Y24	Z24	X25	Y25	Z25	X26	Y26	Z26	X27	Y27	Z27	
441	7.47457627118644	0.23146979964442255	0.46349855827300573	0.8364072091880709	0.233693236958996	0.5398399946215618	1.249505937220816	0.21909447217457279	0.7575076149472374	1.7124593056787798	0.2334496081578109	0.5085042870618505	1.7163259340434793	0.2843000223430631	0.5798716739527704	1.7327012260803987	0.20773652028544595	0.8143340313774413	1.7551213102220902	0.030060819029750042	0.4939303844821265	0.8491252532068145	0.039677248190038455	0.5644945018938912	1.2694519348567108	0.030691819712126905	0.6689219422454132	1.6884487927608653	0.08421871574002161	0.4836717053366218	1.7125316237117636	0.022352690855247614	0.5159034142142733	1.7167629218812863	0.04770173216252512	0.7332853318438988	1.7485359360661552	0.08202743589740843	0.47363600073849166	0.23823069549717985	0.011025862009032904	0.37920474562399165	-0.017418992699984762	0.05183534404755878	0.3168058066564045	0.1606503278670718	0.24149960146437327	0.5246029867790843	0.29758524883556603	0.33694521333982114	0.4647849600618573	0.5506428767200413	0.1588411707812113	0.31371658579473816	0.47326541648924997	0.07546805483279444	0.28038273708660066	0.426745908525471	0.0633835158981876	0.2918441446089588	0.4278853729922049	0.07259013472050259	0.29743738411851095	0.474390530304878	-0.051492081533355605	0.528835853499489	0.32362367257025526	-0.02679200373195791	0.38012776065637033	0.562879464694645	0.015320705451473987	0.3502083166389093	0.40868384560372484	0.048427693101166666	0.43490108023989854	0.24998066953410036	0.04094178061342332	0.3771075400234681	0.21392100977168188	0.05441529730028936	0.33167181738854307	0.25487425156834953
442	7.491525423728813	0.23149426436205925	0.463715163229202	0.836449419784036	0.23368331207057044	0.5398743843929367	1.2495304411458428	0.2190382046106098	0.757639606665626	1.712534554379041	0.23461605072861974	0.5187292577021635	1.7176516296314772	0.2842774263848093	0.5799190977189719	1.7327386217454468	0.2068319138849936	0.8119601741497959	1.7489538999657606	0.030430883066682495	0.49565368316403624	0.8532047140384765	0.03919266653917629	0.5653228821877577	1.2654516946301437	0.034563713290232036	0.6716297123214388	1.689313506776161	0.08424085618990307	0.4837137715849183	1.7125559823443162	0.021290747042249418	0.5163523406510733	1.7209228530584677	0.04685356076980775	0.7222481016901799	1.7468698062398482	0.07547182918680327	0.4862539610397412	0.2352887216212439	0.012341684006928713	0.39037372612797877	-0.018476764810694296	0.05163009045008258	0.31557188198637026	0.15475720081440864	0.2458295705407712	0.5265303730106387	0.30122557069098765	0.3412388682913512	0.4666942315855238	0.5473070567058304	0.15885888570768197	0.31344997481057096	0.4736888712103699	0.08077156059736365	0.2711734141753057	0.436472143963651	0.06632298881525533	0.2813409151115575	0.44496797111981046	0.07217372419287302	0.2976604911424008	0.47792391489681263	-0.051743792531110236	0.5300377237957565	0.327118885438538	-0.02660466014898827	0.3803900092255342	0.5637799272380373	0.014878006741734801	0.34692568656886597	0.3937947635296324	0.03854387372383352	0.4275702978614974	0.2555189056295724	0.027013557714253917	0.3499315574838548	0.2089409301512342	0.05394981213689224	0.32979250153134027	0.2502768712338085
443	7.508474576271187	0.23142590611129615	0.4637012377410021	0.8364251783175367	0.23514082767796263	0.5417462758341721	1.2496782093973573	0.21909329977874745	0.7575118945278085	1.7125045535427625	0.2347715716369366	0.5191974110447539	1.7177430410710253	0.28466130838356385	0.5807598711143891	1.7328757063019624	0.20776548677128232	0.8143730759120156	1.7551882405095913	0.030378884444970954	0.4957234310290041	0.8531356442687558	0.0391727485993445	0.5652691250166997	1.2654650401807759	0.034571428985636	0.6717227979158457	1.689498165068577	0.08374397665940775	0.48122074222440625	1.7070469333843963	0.02140313694229967	0.5161539710709635	1.7206379147440551	0.04834055346296619	0.7360380473785079	1.7534092134777373	0.07569768630857582	0.485597392302152	0.2387110956237675	0.013445588941709524	0.4020565240577287	-0.019524019960138528	0.053332111024548975	0.32653114203723904	0.1573165058627035	0.24552846039537005	0.5264743088686111	0.30072905928836313	0.3438916268125658	0.4789443788942485	0.5484025968455144	0.1592204821017544	0.31318592962904523	0.4802721734569037	0.08544790630417624	0.2619296847977701	0.43790026810708627	0.06525914351109137	0.2815784175469102	0.4524465700361596	0.06850900563224283	0.29577854998558617	0.4848789844202315	-0.0549364984161495	0.5247768618011652	0.3234595840829952	-0.0266080956806607	0.3805464921978718	0.5636583996064269	-0.010585998258635057	0.382892649801792	0.46500741189639966	0.04641077851462349	0.415688600792542	0.25779162751667656	0.026471281075094194	0.3479772034258078	0.20490176009474245	0.04963171471817814	0.3187944483625686	0.24575973503626294
444	7.52542372881356	0.2258077341050558	0.4765168175303685	0.8395970315112916	0.23328863344224265	0.5284615368413983	1.2493289275864032	0.21894539810148006	0.7573290261061295	1.712353953338519	0.234895804529015	0.5198303472465566	1.717938046536627	0.2848876345702963	0.5819312824066808	1.7332759096142119	0.20754390347647375	0.8136083319480015	1.7546755908677087	0.024008410591308746	0.5088529723978233	0.8564517175523366	0.039675262270767946	0.5640874212524365	1.2695291670091962	0.03342300872127802	0.6724357909504679	1.6946910989115642	0.08327585974324207	0.48426097214864494	1.7168511321063225	0.02534144183777892	0.5178425294117651	1.7212639353668886	0.048277307366904255	0.7362605054740889	1.753420118278766	0.07577519976811549	0.4854048454327503	0.23847128963803002	0.02318943139088593	0.39308674652137116	-0.018961810853604166	0.0533393743633232	0.32670507478366023	0.15399986941333635	0.24581410469013246	0.526466679893491	0.3045685976227039	0.34399813598121304	0.47931332465748105	0.5483704549685109	0.1629265342913905	0.31428006863952723	0.48111473582634734	0.08573466124464854	0.2628764566474501	0.44816431931055556	0.06923553681148308	0.28188817465266547	0.45705681914209007	0.07310958170780854	0.29843752934669976	0.4921964017709965	-0.055035545681258416	0.5268584017383252	0.32709600046497656	-0.026931010223485034	0.3798411569773111	0.5624940295071412	0.019369605196428802	0.3337782746891747	0.40396439361853764	0.050422314037111865	0.42976024232218135	0.2477003501694776	0.03509313416446137	0.37684289775735647	0.19126133781223648	0.04960080200915806	0.31816347344166523	0.24092295294414032
445	7.5423728813559325	0.22575966891443894	0.4764229885404024	0.8396039950478729	0.23554124853116512	0.5410251601242027	1.2535250384779322	0.21892356313350797	0.7575257433059225	1.7125311859939685	0.23305826664149834	0.5071744498244237	1.7119563397286186	0.2847577274033782	0.5808135299838995	1.7328840637101601	0.20757184515867694	0.8140096622698071	1.754959089283085	0.030202135893386665	0.49591969919151396	0.853262222101152	0.03967541122214647	0.5641612556816185	1.2695777849870353	0.030099086772600096	0.6683042199421196	1.697698602208356	0.08375324548712187	0.48095510766127825	1.707007970130351	0.02137338020141882	0.5159874274075485	1.7206475361152764	0.04826563980149589	0.73613992946209	1.753382613376478	0.07534707955597177	0.4849937988739737	0.2388278210959327	0.02445579879843275	0.4044296123046806	-0.017251028538528602	0.053375298804891856	0.32552566712156955	0.15105574594805474	0.24557557819795087	0.5260934100303258	0.3006534842631184	0.34421885067582875	0.48002747475695506	0.5484471178304531	0.16904730521852862	0.3027631580310625	0.48345058653112816	0.10060374892340096	0.23281834992365028	0.4497348198459839	0.08060476069915071	0.2610897863447487	0.46077305417518943	0.07845050444183699	0.287898353161735	0.4911597629953994	-0.058183584666448095	0.5218338333274436	0.323768982406509	-0.027229630232580303	0.3796226439973297	0.5609201774786997	0.031021428693907612	0.34512497566315914	0.3917554725772059	0.06256724389762643	0.5088590010797682	0.23621183660946604	0.026335524206603914	0.34861100624604013	0.2051943224771476	0.04968452228103135	0.31901642395804203	0.23901313177954397
